<svg width="347" height="100" viewBox="0 0 347 100" fill="none" xmlns="http://www.w3.org/2000/svg">
  <g clip-path="url(#clip0_2_2)">
    <path
      d="M314.964 55.1148C318.743 55.1148 321.917 56.5158 323.925 59.4565H324.017V55.8164H328.871V81.6732H324.017V77.6592H323.925C322.104 80.7384 318.835 82.3264 315.149 82.3264C307.589 82.3264 301.429 76.632 301.429 69.1649C301.429 60.9037 307.356 55.1148 314.964 55.1148ZM237.79 55.1148C244.929 55.1148 251.651 60.7168 251.558 68.9317C251.464 75.9744 245.45 82.5794 236.93 82.3176C229.704 82.0977 223.564 75.8886 223.647 68.6612C223.74 60.8641 229.916 55.1148 237.79 55.1148ZM276.903 55.1148C281.198 55.1148 284.697 58.1038 284.838 62.6765H279.984C279.751 60.8114 278.678 59.5511 276.669 59.5511C274.802 59.5511 273.636 60.8114 273.636 62.3026C273.636 64.4976 275.88 65.1509 278.444 65.9449C282.084 67.0644 285.445 69.2572 285.445 74.0653C285.445 79.058 281.803 82.3264 276.764 82.3264C272.097 82.3264 267.614 79.1526 267.614 73.1767H272.471C272.704 76.3065 274.29 77.8923 276.856 77.8923C279.098 77.8923 280.591 76.4451 280.591 74.3446C280.591 72.5718 279.238 71.4061 276.203 70.4252C269.856 68.4171 268.782 65.6634 268.782 62.7227C268.782 58.1478 272.655 55.1148 276.903 55.1148ZM196.22 47.1352C198.901 47.1352 201.074 49.3082 201.074 51.9893V58.5701H201.169C202.708 56.2827 205.183 55.117 208.403 55.117C214.563 55.117 219.184 59.0364 219.184 66.1318V81.6732H214.33V67.6253C214.33 62.0716 212.184 59.5511 207.89 59.5511C203.641 59.5511 201.074 62.6303 201.074 67.6715V81.6732H196.22L196.22 47.1352ZM261.92 47.1352V55.8164H266.169V60.2505H261.918V81.6732C259.239 81.6732 257.063 79.5001 257.063 76.819V60.2505H255.06V55.8164H257.063V47.1352H261.918H261.92ZM295.638 47.1352V55.8164H299.887V60.2505H295.64V81.6732C292.959 81.6732 290.786 79.5001 290.786 76.819V60.2505H288.78V55.8164H290.786V47.1352H295.64H295.638ZM346.328 55.117V60.1097C342.127 60.2505 339.981 62.8151 339.981 67.159V76.819C339.981 79.5001 337.808 81.6732 335.127 81.6732V55.8164H339.655V58.1478H339.748C340.913 56.4234 342.921 55.3039 346.328 55.117H346.328ZM237.557 59.5511C231.99 59.5511 227.281 64.9507 228.783 70.9684C229.803 75.0484 233.523 78.0045 237.728 77.8901C242.692 77.7516 246.702 73.7859 246.702 68.6524C246.702 63.6091 242.642 59.5511 237.557 59.5511ZM315.103 59.5511C309.978 59.5511 305.843 64.1787 306.318 69.6466C306.712 74.1554 310.396 77.8 314.918 77.8901C320.047 77.9935 324.112 73.7508 324.112 68.791C324.112 63.7498 320.469 59.5511 315.103 59.5511Z"
      fill="white" />
    <path
      d="M130.281 64.7389C127.73 65.3236 121.015 65.6602 121.015 65.6602L120.165 68.3178C120.165 68.3178 123.513 68.0343 125.958 68.2824C125.958 68.2824 126.756 68.1938 126.844 69.1859C126.88 70.1073 126.773 71.0994 126.773 71.0994C126.773 71.0994 126.72 71.7018 125.87 71.8436C124.948 72.003 118.641 72.2333 118.641 72.2333L117.613 75.6882C117.613 75.6882 117.241 76.4855 118.092 76.2551C118.889 76.0425 125.498 74.8023 126.366 74.9795C127.287 75.2098 128.315 76.4323 128.014 77.5662C127.659 78.9482 121.068 83.1649 117.047 82.8637C117.047 82.8637 114.938 83.0054 113.149 80.1529C111.483 77.4422 113.787 72.2865 113.787 72.2865C113.787 72.2865 112.741 69.8769 113.503 69.0797C113.503 69.0797 113.964 68.6722 115.275 68.5659L116.887 65.2173C116.887 65.2173 115.044 65.3413 113.946 63.9948C112.918 62.7014 112.848 62.1168 113.627 61.7624C114.46 61.3549 122.131 59.9553 127.411 60.1324C127.411 60.1324 129.254 59.9553 130.831 63.1444C130.813 63.1444 131.592 64.4377 130.281 64.7389H130.281ZM110.42 77.6017C109.747 79.1962 107.958 80.8971 105.743 79.834C103.546 78.771 100.056 71.6309 100.056 71.6309C100.056 71.6309 98.7269 68.9733 98.4788 69.0265C98.4788 69.0265 98.1954 68.5127 98.0182 71.4183C97.841 74.324 98.0536 79.9758 96.902 80.8616C95.8035 81.7475 94.4747 81.3932 93.7838 80.3478C93.1636 79.3202 92.8979 76.8752 93.2345 72.5877C93.642 68.3001 94.6342 63.729 95.9098 62.2939C97.1855 60.8766 98.2131 61.9042 98.6029 62.2762C98.6029 62.2762 100.304 63.8176 103.121 68.3532L103.617 69.1859C103.617 69.1859 106.168 73.4735 106.434 73.4558C106.434 73.4558 106.646 73.6507 106.824 73.509C107.089 73.4382 106.983 72.0562 106.983 72.0562C106.983 72.0562 106.452 67.3965 104.131 59.4946C104.131 59.4946 103.776 58.5024 104.024 57.5811C104.255 56.6421 105.194 57.0851 105.194 57.0851C105.194 57.0851 108.808 58.8922 110.544 64.7743C112.263 70.7096 111.094 76.0071 110.42 77.6017H110.42ZM92.6676 62.4888C92.3664 63.0912 92.1892 63.9594 90.6655 64.1897C90.6655 64.1897 76.0842 65.1819 75.3932 66.2095C75.3932 66.2095 74.8794 66.8118 75.6767 66.989C76.474 67.1485 79.7694 67.5914 81.364 67.68C83.0648 67.6977 88.8052 67.7509 90.8604 70.3199C90.8604 70.3199 92.0829 71.5424 92.0298 74.3063C91.9766 77.141 91.4805 78.1332 90.382 79.1608C89.2304 80.1175 79.3442 84.5468 72.966 77.7434C72.966 77.7434 70.0249 74.4657 73.9758 71.9853C73.9758 71.9853 76.8283 70.2667 84.0747 72.2865C84.0747 72.2865 86.2716 73.0838 86.1653 73.881C86.0414 74.7315 84.3582 75.635 81.9132 75.5819C79.5391 75.5111 77.8028 74.3771 78.1394 74.5543C78.4583 74.6782 75.5881 73.1723 74.7023 74.1999C73.8164 75.139 74.029 75.7236 74.8971 76.3083C77.1118 77.5662 85.6692 77.1233 88.2205 74.2885C88.2205 74.2885 89.2304 73.1369 87.689 72.1979C86.1476 71.312 81.736 70.7805 80.0174 70.6919C78.3697 70.6033 72.2395 70.7096 71.3537 69.0797C71.3537 69.0797 70.4678 67.9812 71.4423 64.8629C72.4699 61.603 79.61 60.345 82.6928 60.0616C82.6928 60.0616 91.1794 59.7604 92.7385 61.4967C92.7208 61.4967 92.9334 61.9042 92.6677 62.4888H92.6676ZM68.5721 81.6058C67.5445 82.3676 65.3652 82.031 64.7451 81.1806C64.125 80.4187 63.9124 77.3891 64.0364 72.6408C64.1605 67.8394 64.2668 61.8864 65.2944 60.9474C66.3929 59.9907 67.0661 60.8234 67.4913 61.4789C67.952 62.1168 68.5012 62.8255 68.6252 64.3314C68.7315 65.8374 69.0859 73.7393 69.0859 73.7393C69.0859 73.7393 69.5465 80.8616 68.5721 81.6058ZM70.7867 56.1283C67.7925 57.1205 65.7373 56.7839 64.001 56.0397C63.2392 57.3685 62.7962 57.776 62.2116 57.8646C61.3611 57.9532 60.5993 56.589 60.4576 56.146C60.3158 55.8094 59.9083 55.2425 60.4044 53.8959C58.7036 52.3723 58.5795 50.3171 58.863 48.9351C59.2882 47.3406 62.1584 41.2812 70.8931 40.5726C70.8931 40.5726 75.1629 40.2536 75.8893 42.5392H76.0134C76.0134 42.5392 80.1592 42.5569 80.0707 46.2421C80.0175 49.945 75.4642 54.5515 70.7868 56.1283H70.7867ZM62.6368 47.9252C61.7509 49.3426 61.7155 50.193 62.123 50.7777C63.1329 49.2363 64.9755 46.809 67.6862 44.9664C65.5956 45.1436 63.8416 46.0472 62.6368 47.9252ZM74.7023 45.5511C71.9561 45.9586 67.7039 49.6438 65.6841 52.6557C68.7847 53.2227 74.2593 53.0101 76.6866 48.067C76.6689 48.067 77.8382 45.0019 74.7023 45.5511ZM149.257 74.0936C147.609 76.9638 142.985 82.9523 136.819 81.5526C134.782 86.4957 133.081 91.4743 132.106 98.951C132.106 98.951 131.894 100.404 130.689 99.89C129.502 99.4648 127.517 97.4804 127.128 94.7343C126.702 91.1199 128.315 85.0075 131.592 78.0092C130.636 76.45 129.98 74.2177 130.547 71.0463C130.547 71.0463 131.38 65.1641 137.28 59.849C137.28 59.849 137.988 59.2288 138.396 59.4237C138.857 59.6186 138.644 61.5321 138.272 62.4534C137.9 63.3747 135.26 67.9457 135.26 67.9457C135.26 67.9457 133.612 71.0286 134.073 73.4558C137.173 68.6899 144.225 59.0694 148.601 62.099C150.072 63.1444 150.745 65.4299 150.745 67.8926C150.727 70.0718 150.213 72.3751 149.257 74.0936ZM147.981 66.5461C147.981 66.5461 147.733 64.6503 145.89 66.741C144.296 68.495 141.426 71.8081 139.105 76.2906C141.532 76.0248 143.87 74.696 144.579 74.0228C145.731 72.9952 148.406 70.2313 147.981 66.5461ZM61.9635 68.9556C61.6269 73.2432 59.9792 80.4541 48.3035 84.0153C40.5965 86.3363 33.3147 85.2201 29.346 84.2102C29.2574 85.787 29.0803 86.4603 28.8322 86.7261C28.4956 87.0627 25.9797 88.5155 24.5978 86.4603C23.9777 85.4858 23.6588 83.7141 23.4816 82.1373C14.5521 78.0269 10.4417 72.1093 10.2822 71.8436C10.0873 71.6487 8.04985 69.5226 10.0873 66.9181C12.0008 64.5617 18.255 62.2053 23.8891 61.2486C24.084 56.4295 24.6509 52.7975 25.3242 51.1321C26.1392 49.2009 27.1668 50.9372 28.0527 52.2482C28.7968 53.2227 29.2397 57.4217 29.2751 60.7703C32.9603 60.5931 35.1396 60.8588 39.25 61.603C44.6006 62.5774 48.1795 65.3059 47.8606 68.4064C47.6303 71.4538 44.8309 72.7117 43.7679 72.8003C42.6517 72.8889 40.9154 72.0916 40.9154 72.0916C39.7283 71.5246 40.8268 71.0286 42.2619 70.4085C43.821 69.6466 43.4667 68.867 43.4667 68.867C42.882 67.1662 35.9368 65.9791 29.0271 65.9791C28.9916 69.7883 29.1866 76.1134 29.2751 79.7986C34.112 80.7199 37.7263 80.5427 37.7263 80.5427C37.7263 80.5427 55.3727 80.0466 55.9042 68.7785C56.4535 57.4926 38.311 46.6673 24.899 43.2301C11.5047 39.7221 3.92172 42.1671 3.26618 42.5037C2.5575 42.8581 3.21305 42.9644 3.21305 42.9644C3.21305 42.9644 3.93946 43.0707 5.19738 43.4959C6.52618 43.9211 5.49858 44.6121 5.49858 44.6121C3.21306 45.3385 0.644043 44.8779 0.147961 43.8325C-0.348121 42.7872 0.484576 41.8482 1.44132 40.5017C2.39805 39.0843 3.44336 39.1375 3.44336 39.1375C20.009 33.3971 40.189 43.7794 40.189 43.7794C59.0933 53.3644 62.3179 64.5972 61.9635 68.9556ZM11.9654 68.371C10.0873 69.2923 11.3807 70.621 11.3807 70.621C14.9065 74.4125 19.2472 76.7867 23.3753 78.2572C23.8537 71.7195 23.7828 69.4163 23.8359 66.1209C17.3869 66.5638 13.6662 67.5914 11.9654 68.371Z"
      fill="white" />
    <path
      d="M184.337 67.0245V69.3632C184.337 69.877 183.929 70.2845 183.415 70.2845H172.271C172.271 70.8691 172.289 71.3829 172.289 71.8613C172.289 75.3162 172.147 78.1332 171.811 81.3046C171.757 81.783 171.368 82.1373 170.907 82.1373H168.498C168.249 82.1373 168.019 82.031 167.86 81.8538C167.7 81.6767 167.612 81.4286 167.647 81.1806C167.984 78.0269 168.143 75.2453 168.143 71.8613C168.143 71.3652 168.143 70.8514 168.125 70.2845H157.105C156.591 70.2845 156.184 69.877 156.184 69.3632V67.0245C156.184 66.5107 156.591 66.1032 157.105 66.1032H167.966C167.736 62.294 167.275 58.6265 166.531 54.9059C166.495 54.6755 166.549 54.4452 166.69 54.268C166.832 54.0909 167.045 53.9846 167.275 53.9846H169.879C170.287 53.9846 170.624 54.268 170.712 54.6755C171.439 58.5202 171.899 62.2585 172.13 66.1032H183.415C183.912 66.1032 184.337 66.5284 184.337 67.0245Z"
      fill="white" />
    <path
      d="M169.171 48.4745C163.413 34.3184 153.686 22.2529 141.036 13.5714C128.084 4.69508 112.901 0 97.1323 0C71.0525 0 46.8507 12.9513 32.4111 34.655C32.2517 34.8853 32.2162 35.1865 32.3048 35.4523C32.3934 35.7357 32.606 35.9306 32.8718 36.0192L34.8915 36.7102C35.0155 36.7456 35.1396 36.7633 35.2459 36.7633C35.618 36.7633 35.9723 36.5685 36.1849 36.2673C42.8112 26.5228 51.7761 18.426 62.123 12.8273C72.8065 7.05148 84.9074 3.98639 97.1146 3.98639C111.873 3.98639 126.1 8.34484 138.29 16.5657C150.178 24.5916 159.409 35.8066 164.989 48.9706C165.149 49.3603 165.539 49.6261 165.964 49.6261H168.373C168.657 49.6261 168.923 49.4844 169.064 49.254C169.242 49.0237 169.277 48.7402 169.171 48.4745H169.171ZM35.2459 36.161C35.1927 36.161 35.1396 36.1432 35.0864 36.1255C35.1396 36.1432 35.1927 36.161 35.2459 36.161H35.2813C35.2813 36.161 35.2637 36.161 35.2459 36.161ZM165.468 49.3072C165.521 49.3426 165.574 49.378 165.627 49.3958C165.574 49.3603 165.521 49.3426 165.468 49.3072Z"
      fill="url(#paint0_radial_2_2)" />
  </g>
  <defs>
    <radialGradient id="paint0_radial_2_2" cx="0" cy="0" r="1" gradientUnits="userSpaceOnUse"
      gradientTransform="translate(166.907 49.5368) scale(134.673)">
      <stop offset="0.007" stop-color="#021192" />
      <stop offset="0.03" stop-color="#021096" />
      <stop offset="0.057" stop-color="#010CB4" />
      <stop offset="0.084" stop-color="#0008CE" />
      <stop offset="0.111" stop-color="#0006D7" />
      <stop offset="0.138" stop-color="#0004E1" />
      <stop offset="0.165" stop-color="#0001FA" />
      <stop offset="0.191" stop-color="#0000FE" />
      <stop offset="0.216" stop-color="#0F1EFF" />
      <stop offset="1" stop-color="#00FFFF" stop-opacity="0" />
    </radialGradient>
    <clipPath id="clip0_2_2">
      <rect width="346.328" height="100" fill="white" />
    </clipPath>
  </defs>
</svg>